<mxfile host="65bd71144e">
    <diagram id="TXBD-LZY1iGdPi2Dcbin" name="第 1 页">
        <mxGraphModel dx="793" dy="516" grid="1" gridSize="10" guides="1" tooltips="1" connect="1" arrows="1" fold="1" page="1" pageScale="1" pageWidth="827" pageHeight="1169" math="1" shadow="0">
            <root>
                <mxCell id="0"/>
                <mxCell id="HluPISO-prluZnNnP8vA-9" value="未命名图层" parent="0"/>
                <mxCell id="HluPISO-prluZnNnP8vA-194" value="" style="ellipse;whiteSpace=wrap;html=1;aspect=fixed;fillColor=none;fontSize=19;fontFamily=Times New Roman;" parent="HluPISO-prluZnNnP8vA-9" vertex="1">
                    <mxGeometry x="320" y="520" width="160" height="160" as="geometry"/>
                </mxCell>
                <mxCell id="HluPISO-prluZnNnP8vA-10" value="" style="endArrow=none;html=1;rounded=0;fontSize=19;fontFamily=Times New Roman;" parent="HluPISO-prluZnNnP8vA-9" edge="1">
                    <mxGeometry width="50" height="50" relative="1" as="geometry">
                        <mxPoint x="380" y="290" as="sourcePoint"/>
                        <mxPoint x="420" y="250" as="targetPoint"/>
                    </mxGeometry>
                </mxCell>
                <mxCell id="HluPISO-prluZnNnP8vA-11" value="" style="endArrow=none;html=1;rounded=0;fontSize=19;fontFamily=Times New Roman;" parent="HluPISO-prluZnNnP8vA-9" edge="1">
                    <mxGeometry width="50" height="50" relative="1" as="geometry">
                        <mxPoint x="380" y="300" as="sourcePoint"/>
                        <mxPoint x="430" y="250" as="targetPoint"/>
                    </mxGeometry>
                </mxCell>
                <mxCell id="HluPISO-prluZnNnP8vA-12" value="" style="endArrow=none;html=1;rounded=0;fontSize=19;fontFamily=Times New Roman;" parent="HluPISO-prluZnNnP8vA-9" edge="1">
                    <mxGeometry width="50" height="50" relative="1" as="geometry">
                        <mxPoint x="380" y="310" as="sourcePoint"/>
                        <mxPoint x="440" y="250" as="targetPoint"/>
                        <Array as="points">
                            <mxPoint x="410" y="280"/>
                        </Array>
                    </mxGeometry>
                </mxCell>
                <mxCell id="HluPISO-prluZnNnP8vA-13" value="" style="endArrow=none;html=1;rounded=0;fontSize=19;fontFamily=Times New Roman;" parent="HluPISO-prluZnNnP8vA-9" edge="1">
                    <mxGeometry width="50" height="50" relative="1" as="geometry">
                        <mxPoint x="380" y="320" as="sourcePoint"/>
                        <mxPoint x="440" y="260" as="targetPoint"/>
                        <Array as="points">
                            <mxPoint x="410" y="290"/>
                        </Array>
                    </mxGeometry>
                </mxCell>
                <mxCell id="HluPISO-prluZnNnP8vA-14" value="" style="endArrow=none;html=1;rounded=0;fontSize=19;fontFamily=Times New Roman;" parent="HluPISO-prluZnNnP8vA-9" edge="1">
                    <mxGeometry width="50" height="50" relative="1" as="geometry">
                        <mxPoint x="390" y="320" as="sourcePoint"/>
                        <mxPoint x="450" y="260" as="targetPoint"/>
                        <Array as="points">
                            <mxPoint x="420" y="290"/>
                        </Array>
                    </mxGeometry>
                </mxCell>
                <mxCell id="HluPISO-prluZnNnP8vA-15" value="" style="endArrow=none;html=1;rounded=0;fontSize=19;fontFamily=Times New Roman;" parent="HluPISO-prluZnNnP8vA-9" edge="1">
                    <mxGeometry width="50" height="50" relative="1" as="geometry">
                        <mxPoint x="390" y="330" as="sourcePoint"/>
                        <mxPoint x="450" y="270" as="targetPoint"/>
                        <Array as="points">
                            <mxPoint x="420" y="300"/>
                        </Array>
                    </mxGeometry>
                </mxCell>
                <mxCell id="HluPISO-prluZnNnP8vA-16" value="" style="endArrow=none;html=1;rounded=0;fontSize=19;fontFamily=Times New Roman;" parent="HluPISO-prluZnNnP8vA-9" edge="1">
                    <mxGeometry width="50" height="50" relative="1" as="geometry">
                        <mxPoint x="390" y="340" as="sourcePoint"/>
                        <mxPoint x="450" y="280" as="targetPoint"/>
                        <Array as="points">
                            <mxPoint x="420" y="310"/>
                        </Array>
                    </mxGeometry>
                </mxCell>
                <mxCell id="HluPISO-prluZnNnP8vA-17" value="" style="endArrow=none;html=1;rounded=0;fontSize=19;fontFamily=Times New Roman;" parent="HluPISO-prluZnNnP8vA-9" edge="1">
                    <mxGeometry width="50" height="50" relative="1" as="geometry">
                        <mxPoint x="400" y="340" as="sourcePoint"/>
                        <mxPoint x="460" y="280" as="targetPoint"/>
                        <Array as="points">
                            <mxPoint x="430" y="310"/>
                        </Array>
                    </mxGeometry>
                </mxCell>
                <mxCell id="HluPISO-prluZnNnP8vA-18" value="" style="endArrow=none;html=1;rounded=0;fontSize=19;fontFamily=Times New Roman;" parent="HluPISO-prluZnNnP8vA-9" edge="1">
                    <mxGeometry width="50" height="50" relative="1" as="geometry">
                        <mxPoint x="400" y="350" as="sourcePoint"/>
                        <mxPoint x="460" y="290" as="targetPoint"/>
                        <Array as="points">
                            <mxPoint x="430" y="320"/>
                        </Array>
                    </mxGeometry>
                </mxCell>
                <mxCell id="HluPISO-prluZnNnP8vA-19" value="" style="endArrow=none;html=1;rounded=0;fontSize=19;fontFamily=Times New Roman;" parent="HluPISO-prluZnNnP8vA-9" edge="1">
                    <mxGeometry width="50" height="50" relative="1" as="geometry">
                        <mxPoint x="410" y="350" as="sourcePoint"/>
                        <mxPoint x="470" y="290" as="targetPoint"/>
                        <Array as="points">
                            <mxPoint x="440" y="320"/>
                        </Array>
                    </mxGeometry>
                </mxCell>
                <mxCell id="HluPISO-prluZnNnP8vA-20" value="" style="endArrow=none;html=1;rounded=0;fontSize=19;fontFamily=Times New Roman;" parent="HluPISO-prluZnNnP8vA-9" edge="1">
                    <mxGeometry width="50" height="50" relative="1" as="geometry">
                        <mxPoint x="410" y="360" as="sourcePoint"/>
                        <mxPoint x="470" y="300" as="targetPoint"/>
                        <Array as="points">
                            <mxPoint x="440" y="330"/>
                        </Array>
                    </mxGeometry>
                </mxCell>
                <mxCell id="HluPISO-prluZnNnP8vA-21" value="" style="endArrow=none;html=1;rounded=0;fontSize=19;fontFamily=Times New Roman;" parent="HluPISO-prluZnNnP8vA-9" edge="1">
                    <mxGeometry width="50" height="50" relative="1" as="geometry">
                        <mxPoint x="410" y="370" as="sourcePoint"/>
                        <mxPoint x="470" y="310" as="targetPoint"/>
                        <Array as="points">
                            <mxPoint x="440" y="340"/>
                        </Array>
                    </mxGeometry>
                </mxCell>
                <mxCell id="HluPISO-prluZnNnP8vA-22" value="" style="endArrow=none;html=1;rounded=0;fontSize=19;fontFamily=Times New Roman;" parent="HluPISO-prluZnNnP8vA-9" edge="1">
                    <mxGeometry width="50" height="50" relative="1" as="geometry">
                        <mxPoint x="420" y="370" as="sourcePoint"/>
                        <mxPoint x="480" y="310" as="targetPoint"/>
                        <Array as="points">
                            <mxPoint x="450" y="340"/>
                        </Array>
                    </mxGeometry>
                </mxCell>
                <mxCell id="HluPISO-prluZnNnP8vA-23" value="" style="endArrow=none;html=1;rounded=0;fontSize=19;fontFamily=Times New Roman;" parent="HluPISO-prluZnNnP8vA-9" edge="1">
                    <mxGeometry width="50" height="50" relative="1" as="geometry">
                        <mxPoint x="420" y="380" as="sourcePoint"/>
                        <mxPoint x="480" y="320" as="targetPoint"/>
                        <Array as="points">
                            <mxPoint x="450" y="350"/>
                        </Array>
                    </mxGeometry>
                </mxCell>
                <mxCell id="HluPISO-prluZnNnP8vA-24" value="" style="endArrow=none;html=1;rounded=0;fontSize=19;fontFamily=Times New Roman;" parent="HluPISO-prluZnNnP8vA-9" edge="1">
                    <mxGeometry width="50" height="50" relative="1" as="geometry">
                        <mxPoint x="440" y="370" as="sourcePoint"/>
                        <mxPoint x="500" y="310" as="targetPoint"/>
                        <Array as="points">
                            <mxPoint x="470" y="340"/>
                        </Array>
                    </mxGeometry>
                </mxCell>
                <mxCell id="HluPISO-prluZnNnP8vA-25" value="" style="endArrow=none;html=1;rounded=0;fontSize=19;fontFamily=Times New Roman;" parent="HluPISO-prluZnNnP8vA-9" edge="1">
                    <mxGeometry width="50" height="50" relative="1" as="geometry">
                        <mxPoint x="430" y="390" as="sourcePoint"/>
                        <mxPoint x="490" y="330" as="targetPoint"/>
                        <Array as="points">
                            <mxPoint x="460" y="360"/>
                        </Array>
                    </mxGeometry>
                </mxCell>
                <mxCell id="HluPISO-prluZnNnP8vA-26" value="" style="endArrow=none;html=1;rounded=0;fontSize=19;fontFamily=Times New Roman;" parent="HluPISO-prluZnNnP8vA-9" edge="1">
                    <mxGeometry width="50" height="50" relative="1" as="geometry">
                        <mxPoint x="440" y="390" as="sourcePoint"/>
                        <mxPoint x="500" y="330" as="targetPoint"/>
                        <Array as="points">
                            <mxPoint x="470" y="360"/>
                        </Array>
                    </mxGeometry>
                </mxCell>
                <mxCell id="HluPISO-prluZnNnP8vA-27" value="" style="endArrow=none;html=1;rounded=0;fontSize=19;fontFamily=Times New Roman;" parent="HluPISO-prluZnNnP8vA-9" edge="1">
                    <mxGeometry width="50" height="50" relative="1" as="geometry">
                        <mxPoint x="440" y="400" as="sourcePoint"/>
                        <mxPoint x="500" y="340" as="targetPoint"/>
                        <Array as="points">
                            <mxPoint x="470" y="370"/>
                        </Array>
                    </mxGeometry>
                </mxCell>
                <mxCell id="HluPISO-prluZnNnP8vA-28" value="" style="endArrow=none;html=1;rounded=0;fontSize=19;fontFamily=Times New Roman;" parent="HluPISO-prluZnNnP8vA-9" edge="1">
                    <mxGeometry width="50" height="50" relative="1" as="geometry">
                        <mxPoint x="450" y="400" as="sourcePoint"/>
                        <mxPoint x="500" y="350" as="targetPoint"/>
                        <Array as="points">
                            <mxPoint x="470" y="380"/>
                        </Array>
                    </mxGeometry>
                </mxCell>
                <mxCell id="HluPISO-prluZnNnP8vA-29" value="" style="endArrow=none;html=1;rounded=0;fontSize=19;fontFamily=Times New Roman;" parent="HluPISO-prluZnNnP8vA-9" edge="1">
                    <mxGeometry width="50" height="50" relative="1" as="geometry">
                        <mxPoint x="460" y="400" as="sourcePoint"/>
                        <mxPoint x="500" y="360" as="targetPoint"/>
                        <Array as="points">
                            <mxPoint x="470" y="390"/>
                        </Array>
                    </mxGeometry>
                </mxCell>
                <mxCell id="HluPISO-prluZnNnP8vA-30" value="" style="endArrow=none;html=1;rounded=0;fontSize=19;fontFamily=Times New Roman;" parent="HluPISO-prluZnNnP8vA-9" edge="1">
                    <mxGeometry width="50" height="50" relative="1" as="geometry">
                        <mxPoint x="410" y="370" as="sourcePoint"/>
                        <mxPoint x="410" y="370" as="targetPoint"/>
                        <Array as="points"/>
                    </mxGeometry>
                </mxCell>
                <mxCell id="HluPISO-prluZnNnP8vA-33" value="" style="verticalLabelPosition=bottom;verticalAlign=top;html=1;shape=mxgraph.basic.donut;dx=39.67;strokeColor=none;fontSize=19;fontFamily=Times New Roman;" parent="HluPISO-prluZnNnP8vA-9" vertex="1">
                    <mxGeometry x="280" y="240" width="240" height="240" as="geometry"/>
                </mxCell>
                <mxCell id="HluPISO-prluZnNnP8vA-34" value="" style="verticalLabelPosition=bottom;verticalAlign=top;html=1;shape=mxgraph.basic.partConcEllipse;startAngle=0.16618466658432132;endAngle=0.08301813039006675;arcWidth=0.5;fontSize=19;fontFamily=Times New Roman;" parent="HluPISO-prluZnNnP8vA-9" vertex="1">
                    <mxGeometry x="320" y="280" width="160" height="160" as="geometry"/>
                </mxCell>
                <mxCell id="HluPISO-prluZnNnP8vA-75" value="" style="endArrow=none;html=1;rounded=0;fontSize=19;fontFamily=Times New Roman;" parent="HluPISO-prluZnNnP8vA-9" edge="1">
                    <mxGeometry width="50" height="50" relative="1" as="geometry">
                        <mxPoint x="300" y="590" as="sourcePoint"/>
                        <mxPoint x="340" y="550" as="targetPoint"/>
                    </mxGeometry>
                </mxCell>
                <mxCell id="HluPISO-prluZnNnP8vA-76" value="" style="endArrow=none;html=1;rounded=0;fontSize=19;fontFamily=Times New Roman;" parent="HluPISO-prluZnNnP8vA-9" edge="1">
                    <mxGeometry width="50" height="50" relative="1" as="geometry">
                        <mxPoint x="300" y="600" as="sourcePoint"/>
                        <mxPoint x="350" y="550" as="targetPoint"/>
                    </mxGeometry>
                </mxCell>
                <mxCell id="HluPISO-prluZnNnP8vA-77" value="" style="endArrow=none;html=1;rounded=0;fontSize=19;fontFamily=Times New Roman;" parent="HluPISO-prluZnNnP8vA-9" edge="1">
                    <mxGeometry width="50" height="50" relative="1" as="geometry">
                        <mxPoint x="300" y="610" as="sourcePoint"/>
                        <mxPoint x="360" y="550" as="targetPoint"/>
                        <Array as="points">
                            <mxPoint x="330" y="580"/>
                        </Array>
                    </mxGeometry>
                </mxCell>
                <mxCell id="HluPISO-prluZnNnP8vA-78" value="" style="endArrow=none;html=1;rounded=0;fontSize=19;fontFamily=Times New Roman;" parent="HluPISO-prluZnNnP8vA-9" edge="1">
                    <mxGeometry width="50" height="50" relative="1" as="geometry">
                        <mxPoint x="300" y="620" as="sourcePoint"/>
                        <mxPoint x="360" y="560" as="targetPoint"/>
                        <Array as="points">
                            <mxPoint x="330" y="590"/>
                        </Array>
                    </mxGeometry>
                </mxCell>
                <mxCell id="HluPISO-prluZnNnP8vA-79" value="" style="endArrow=none;html=1;rounded=0;fontSize=19;fontFamily=Times New Roman;" parent="HluPISO-prluZnNnP8vA-9" edge="1">
                    <mxGeometry width="50" height="50" relative="1" as="geometry">
                        <mxPoint x="310" y="620" as="sourcePoint"/>
                        <mxPoint x="370" y="560" as="targetPoint"/>
                        <Array as="points">
                            <mxPoint x="340" y="590"/>
                        </Array>
                    </mxGeometry>
                </mxCell>
                <mxCell id="HluPISO-prluZnNnP8vA-80" value="" style="endArrow=none;html=1;rounded=0;fontSize=19;fontFamily=Times New Roman;" parent="HluPISO-prluZnNnP8vA-9" edge="1">
                    <mxGeometry width="50" height="50" relative="1" as="geometry">
                        <mxPoint x="310" y="630" as="sourcePoint"/>
                        <mxPoint x="370" y="570" as="targetPoint"/>
                        <Array as="points">
                            <mxPoint x="340" y="600"/>
                        </Array>
                    </mxGeometry>
                </mxCell>
                <mxCell id="HluPISO-prluZnNnP8vA-81" value="" style="endArrow=none;html=1;rounded=0;fontSize=19;fontFamily=Times New Roman;" parent="HluPISO-prluZnNnP8vA-9" edge="1">
                    <mxGeometry width="50" height="50" relative="1" as="geometry">
                        <mxPoint x="310" y="640" as="sourcePoint"/>
                        <mxPoint x="370" y="580" as="targetPoint"/>
                        <Array as="points">
                            <mxPoint x="340" y="610"/>
                        </Array>
                    </mxGeometry>
                </mxCell>
                <mxCell id="HluPISO-prluZnNnP8vA-82" value="" style="endArrow=none;html=1;rounded=0;fontSize=19;fontFamily=Times New Roman;" parent="HluPISO-prluZnNnP8vA-9" edge="1">
                    <mxGeometry width="50" height="50" relative="1" as="geometry">
                        <mxPoint x="320" y="640" as="sourcePoint"/>
                        <mxPoint x="380" y="580" as="targetPoint"/>
                        <Array as="points">
                            <mxPoint x="350" y="610"/>
                        </Array>
                    </mxGeometry>
                </mxCell>
                <mxCell id="HluPISO-prluZnNnP8vA-83" value="" style="endArrow=none;html=1;rounded=0;fontSize=19;fontFamily=Times New Roman;" parent="HluPISO-prluZnNnP8vA-9" edge="1">
                    <mxGeometry width="50" height="50" relative="1" as="geometry">
                        <mxPoint x="320" y="650" as="sourcePoint"/>
                        <mxPoint x="380" y="590" as="targetPoint"/>
                        <Array as="points">
                            <mxPoint x="350" y="620"/>
                        </Array>
                    </mxGeometry>
                </mxCell>
                <mxCell id="HluPISO-prluZnNnP8vA-84" value="" style="endArrow=none;html=1;rounded=0;fontSize=19;fontFamily=Times New Roman;" parent="HluPISO-prluZnNnP8vA-9" edge="1">
                    <mxGeometry width="50" height="50" relative="1" as="geometry">
                        <mxPoint x="330" y="650" as="sourcePoint"/>
                        <mxPoint x="390" y="590" as="targetPoint"/>
                        <Array as="points">
                            <mxPoint x="360" y="620"/>
                        </Array>
                    </mxGeometry>
                </mxCell>
                <mxCell id="HluPISO-prluZnNnP8vA-85" value="" style="endArrow=none;html=1;rounded=0;fontSize=19;fontFamily=Times New Roman;" parent="HluPISO-prluZnNnP8vA-9" edge="1">
                    <mxGeometry width="50" height="50" relative="1" as="geometry">
                        <mxPoint x="330" y="660" as="sourcePoint"/>
                        <mxPoint x="390" y="600" as="targetPoint"/>
                        <Array as="points">
                            <mxPoint x="360" y="630"/>
                        </Array>
                    </mxGeometry>
                </mxCell>
                <mxCell id="HluPISO-prluZnNnP8vA-86" value="" style="endArrow=none;html=1;rounded=0;fontSize=19;fontFamily=Times New Roman;" parent="HluPISO-prluZnNnP8vA-9" edge="1">
                    <mxGeometry width="50" height="50" relative="1" as="geometry">
                        <mxPoint x="330" y="670" as="sourcePoint"/>
                        <mxPoint x="390" y="610" as="targetPoint"/>
                        <Array as="points">
                            <mxPoint x="360" y="640"/>
                        </Array>
                    </mxGeometry>
                </mxCell>
                <mxCell id="HluPISO-prluZnNnP8vA-87" value="" style="endArrow=none;html=1;rounded=0;fontSize=19;fontFamily=Times New Roman;" parent="HluPISO-prluZnNnP8vA-9" edge="1">
                    <mxGeometry width="50" height="50" relative="1" as="geometry">
                        <mxPoint x="340" y="670" as="sourcePoint"/>
                        <mxPoint x="400" y="610" as="targetPoint"/>
                        <Array as="points">
                            <mxPoint x="370" y="640"/>
                        </Array>
                    </mxGeometry>
                </mxCell>
                <mxCell id="HluPISO-prluZnNnP8vA-88" value="" style="endArrow=none;html=1;rounded=0;fontSize=19;fontFamily=Times New Roman;" parent="HluPISO-prluZnNnP8vA-9" edge="1">
                    <mxGeometry width="50" height="50" relative="1" as="geometry">
                        <mxPoint x="340" y="680" as="sourcePoint"/>
                        <mxPoint x="400" y="620" as="targetPoint"/>
                        <Array as="points">
                            <mxPoint x="370" y="650"/>
                        </Array>
                    </mxGeometry>
                </mxCell>
                <mxCell id="HluPISO-prluZnNnP8vA-89" value="" style="endArrow=none;html=1;rounded=0;fontSize=19;fontFamily=Times New Roman;" parent="HluPISO-prluZnNnP8vA-9" edge="1">
                    <mxGeometry width="50" height="50" relative="1" as="geometry">
                        <mxPoint x="360" y="670" as="sourcePoint"/>
                        <mxPoint x="420" y="610" as="targetPoint"/>
                        <Array as="points">
                            <mxPoint x="390" y="640"/>
                        </Array>
                    </mxGeometry>
                </mxCell>
                <mxCell id="HluPISO-prluZnNnP8vA-90" value="" style="endArrow=none;html=1;rounded=0;fontSize=19;fontFamily=Times New Roman;" parent="HluPISO-prluZnNnP8vA-9" edge="1">
                    <mxGeometry width="50" height="50" relative="1" as="geometry">
                        <mxPoint x="350" y="690" as="sourcePoint"/>
                        <mxPoint x="410" y="630" as="targetPoint"/>
                        <Array as="points">
                            <mxPoint x="380" y="660"/>
                        </Array>
                    </mxGeometry>
                </mxCell>
                <mxCell id="HluPISO-prluZnNnP8vA-91" value="" style="endArrow=none;html=1;rounded=0;fontSize=19;fontFamily=Times New Roman;" parent="HluPISO-prluZnNnP8vA-9" edge="1">
                    <mxGeometry width="50" height="50" relative="1" as="geometry">
                        <mxPoint x="360" y="690" as="sourcePoint"/>
                        <mxPoint x="420" y="630" as="targetPoint"/>
                        <Array as="points">
                            <mxPoint x="390" y="660"/>
                        </Array>
                    </mxGeometry>
                </mxCell>
                <mxCell id="HluPISO-prluZnNnP8vA-92" value="" style="endArrow=none;html=1;rounded=0;fontSize=19;fontFamily=Times New Roman;" parent="HluPISO-prluZnNnP8vA-9" edge="1">
                    <mxGeometry width="50" height="50" relative="1" as="geometry">
                        <mxPoint x="360" y="700" as="sourcePoint"/>
                        <mxPoint x="420" y="640" as="targetPoint"/>
                        <Array as="points">
                            <mxPoint x="390" y="670"/>
                        </Array>
                    </mxGeometry>
                </mxCell>
                <mxCell id="HluPISO-prluZnNnP8vA-93" value="" style="endArrow=none;html=1;rounded=0;fontSize=19;fontFamily=Times New Roman;" parent="HluPISO-prluZnNnP8vA-9" edge="1">
                    <mxGeometry width="50" height="50" relative="1" as="geometry">
                        <mxPoint x="370" y="700" as="sourcePoint"/>
                        <mxPoint x="420" y="650" as="targetPoint"/>
                        <Array as="points">
                            <mxPoint x="390" y="680"/>
                        </Array>
                    </mxGeometry>
                </mxCell>
                <mxCell id="HluPISO-prluZnNnP8vA-94" value="" style="endArrow=none;html=1;rounded=0;fontSize=19;fontFamily=Times New Roman;" parent="HluPISO-prluZnNnP8vA-9" edge="1">
                    <mxGeometry width="50" height="50" relative="1" as="geometry">
                        <mxPoint x="380" y="700" as="sourcePoint"/>
                        <mxPoint x="420" y="660" as="targetPoint"/>
                        <Array as="points">
                            <mxPoint x="390" y="690"/>
                        </Array>
                    </mxGeometry>
                </mxCell>
                <mxCell id="HluPISO-prluZnNnP8vA-95" value="" style="endArrow=none;html=1;rounded=0;fontSize=19;fontFamily=Times New Roman;" parent="HluPISO-prluZnNnP8vA-9" edge="1">
                    <mxGeometry width="50" height="50" relative="1" as="geometry">
                        <mxPoint x="330" y="670" as="sourcePoint"/>
                        <mxPoint x="330" y="670" as="targetPoint"/>
                        <Array as="points"/>
                    </mxGeometry>
                </mxCell>
                <mxCell id="HluPISO-prluZnNnP8vA-97" value="" style="endArrow=none;html=1;rounded=0;fontSize=19;fontFamily=Times New Roman;" parent="HluPISO-prluZnNnP8vA-9" edge="1">
                    <mxGeometry width="50" height="50" relative="1" as="geometry">
                        <mxPoint x="340" y="550" as="sourcePoint"/>
                        <mxPoint x="380" y="510" as="targetPoint"/>
                    </mxGeometry>
                </mxCell>
                <mxCell id="HluPISO-prluZnNnP8vA-98" value="" style="endArrow=none;html=1;rounded=0;fontSize=19;fontFamily=Times New Roman;" parent="HluPISO-prluZnNnP8vA-9" edge="1">
                    <mxGeometry width="50" height="50" relative="1" as="geometry">
                        <mxPoint x="340" y="560" as="sourcePoint"/>
                        <mxPoint x="390" y="510" as="targetPoint"/>
                    </mxGeometry>
                </mxCell>
                <mxCell id="HluPISO-prluZnNnP8vA-99" value="" style="endArrow=none;html=1;rounded=0;fontSize=19;fontFamily=Times New Roman;" parent="HluPISO-prluZnNnP8vA-9" edge="1">
                    <mxGeometry width="50" height="50" relative="1" as="geometry">
                        <mxPoint x="340" y="570" as="sourcePoint"/>
                        <mxPoint x="400" y="510" as="targetPoint"/>
                        <Array as="points">
                            <mxPoint x="370" y="540"/>
                        </Array>
                    </mxGeometry>
                </mxCell>
                <mxCell id="HluPISO-prluZnNnP8vA-100" value="" style="endArrow=none;html=1;rounded=0;fontSize=19;fontFamily=Times New Roman;" parent="HluPISO-prluZnNnP8vA-9" edge="1">
                    <mxGeometry width="50" height="50" relative="1" as="geometry">
                        <mxPoint x="340" y="580" as="sourcePoint"/>
                        <mxPoint x="400" y="520" as="targetPoint"/>
                        <Array as="points">
                            <mxPoint x="370" y="550"/>
                        </Array>
                    </mxGeometry>
                </mxCell>
                <mxCell id="HluPISO-prluZnNnP8vA-101" value="" style="endArrow=none;html=1;rounded=0;fontSize=19;fontFamily=Times New Roman;" parent="HluPISO-prluZnNnP8vA-9" edge="1">
                    <mxGeometry width="50" height="50" relative="1" as="geometry">
                        <mxPoint x="350" y="580" as="sourcePoint"/>
                        <mxPoint x="410" y="520" as="targetPoint"/>
                        <Array as="points">
                            <mxPoint x="380" y="550"/>
                        </Array>
                    </mxGeometry>
                </mxCell>
                <mxCell id="HluPISO-prluZnNnP8vA-102" value="" style="endArrow=none;html=1;rounded=0;fontSize=19;fontFamily=Times New Roman;" parent="HluPISO-prluZnNnP8vA-9" edge="1">
                    <mxGeometry width="50" height="50" relative="1" as="geometry">
                        <mxPoint x="350" y="590" as="sourcePoint"/>
                        <mxPoint x="410" y="530" as="targetPoint"/>
                        <Array as="points">
                            <mxPoint x="380" y="560"/>
                        </Array>
                    </mxGeometry>
                </mxCell>
                <mxCell id="HluPISO-prluZnNnP8vA-103" value="" style="endArrow=none;html=1;rounded=0;fontSize=19;fontFamily=Times New Roman;" parent="HluPISO-prluZnNnP8vA-9" edge="1">
                    <mxGeometry width="50" height="50" relative="1" as="geometry">
                        <mxPoint x="350" y="600" as="sourcePoint"/>
                        <mxPoint x="410" y="540" as="targetPoint"/>
                        <Array as="points">
                            <mxPoint x="380" y="570"/>
                        </Array>
                    </mxGeometry>
                </mxCell>
                <mxCell id="HluPISO-prluZnNnP8vA-104" value="" style="endArrow=none;html=1;rounded=0;fontSize=19;fontFamily=Times New Roman;" parent="HluPISO-prluZnNnP8vA-9" edge="1">
                    <mxGeometry width="50" height="50" relative="1" as="geometry">
                        <mxPoint x="360" y="600" as="sourcePoint"/>
                        <mxPoint x="420" y="540" as="targetPoint"/>
                        <Array as="points">
                            <mxPoint x="390" y="570"/>
                        </Array>
                    </mxGeometry>
                </mxCell>
                <mxCell id="HluPISO-prluZnNnP8vA-105" value="" style="endArrow=none;html=1;rounded=0;fontSize=19;fontFamily=Times New Roman;" parent="HluPISO-prluZnNnP8vA-9" edge="1">
                    <mxGeometry width="50" height="50" relative="1" as="geometry">
                        <mxPoint x="360" y="610" as="sourcePoint"/>
                        <mxPoint x="420" y="550" as="targetPoint"/>
                        <Array as="points">
                            <mxPoint x="390" y="580"/>
                        </Array>
                    </mxGeometry>
                </mxCell>
                <mxCell id="HluPISO-prluZnNnP8vA-106" value="" style="endArrow=none;html=1;rounded=0;fontSize=19;fontFamily=Times New Roman;" parent="HluPISO-prluZnNnP8vA-9" edge="1">
                    <mxGeometry width="50" height="50" relative="1" as="geometry">
                        <mxPoint x="370" y="610" as="sourcePoint"/>
                        <mxPoint x="430" y="550" as="targetPoint"/>
                        <Array as="points">
                            <mxPoint x="400" y="580"/>
                        </Array>
                    </mxGeometry>
                </mxCell>
                <mxCell id="HluPISO-prluZnNnP8vA-107" value="" style="endArrow=none;html=1;rounded=0;fontSize=19;fontFamily=Times New Roman;" parent="HluPISO-prluZnNnP8vA-9" edge="1">
                    <mxGeometry width="50" height="50" relative="1" as="geometry">
                        <mxPoint x="370" y="620" as="sourcePoint"/>
                        <mxPoint x="430" y="560" as="targetPoint"/>
                        <Array as="points">
                            <mxPoint x="400" y="590"/>
                        </Array>
                    </mxGeometry>
                </mxCell>
                <mxCell id="HluPISO-prluZnNnP8vA-108" value="" style="endArrow=none;html=1;rounded=0;fontSize=19;fontFamily=Times New Roman;" parent="HluPISO-prluZnNnP8vA-9" edge="1">
                    <mxGeometry width="50" height="50" relative="1" as="geometry">
                        <mxPoint x="370" y="630" as="sourcePoint"/>
                        <mxPoint x="430" y="570" as="targetPoint"/>
                        <Array as="points">
                            <mxPoint x="400" y="600"/>
                        </Array>
                    </mxGeometry>
                </mxCell>
                <mxCell id="HluPISO-prluZnNnP8vA-109" value="" style="endArrow=none;html=1;rounded=0;fontSize=19;fontFamily=Times New Roman;" parent="HluPISO-prluZnNnP8vA-9" edge="1">
                    <mxGeometry width="50" height="50" relative="1" as="geometry">
                        <mxPoint x="380" y="630" as="sourcePoint"/>
                        <mxPoint x="440" y="570" as="targetPoint"/>
                        <Array as="points">
                            <mxPoint x="410" y="600"/>
                        </Array>
                    </mxGeometry>
                </mxCell>
                <mxCell id="HluPISO-prluZnNnP8vA-110" value="" style="endArrow=none;html=1;rounded=0;fontSize=19;fontFamily=Times New Roman;" parent="HluPISO-prluZnNnP8vA-9" edge="1">
                    <mxGeometry width="50" height="50" relative="1" as="geometry">
                        <mxPoint x="380" y="640" as="sourcePoint"/>
                        <mxPoint x="440" y="580" as="targetPoint"/>
                        <Array as="points">
                            <mxPoint x="410" y="610"/>
                        </Array>
                    </mxGeometry>
                </mxCell>
                <mxCell id="HluPISO-prluZnNnP8vA-111" value="" style="endArrow=none;html=1;rounded=0;fontSize=19;fontFamily=Times New Roman;" parent="HluPISO-prluZnNnP8vA-9" edge="1">
                    <mxGeometry width="50" height="50" relative="1" as="geometry">
                        <mxPoint x="400" y="630" as="sourcePoint"/>
                        <mxPoint x="460" y="570" as="targetPoint"/>
                        <Array as="points">
                            <mxPoint x="430" y="600"/>
                        </Array>
                    </mxGeometry>
                </mxCell>
                <mxCell id="HluPISO-prluZnNnP8vA-112" value="" style="endArrow=none;html=1;rounded=0;fontSize=19;fontFamily=Times New Roman;" parent="HluPISO-prluZnNnP8vA-9" edge="1">
                    <mxGeometry width="50" height="50" relative="1" as="geometry">
                        <mxPoint x="390" y="650" as="sourcePoint"/>
                        <mxPoint x="450" y="590" as="targetPoint"/>
                        <Array as="points">
                            <mxPoint x="420" y="620"/>
                        </Array>
                    </mxGeometry>
                </mxCell>
                <mxCell id="HluPISO-prluZnNnP8vA-113" value="" style="endArrow=none;html=1;rounded=0;fontSize=19;fontFamily=Times New Roman;" parent="HluPISO-prluZnNnP8vA-9" edge="1">
                    <mxGeometry width="50" height="50" relative="1" as="geometry">
                        <mxPoint x="400" y="650" as="sourcePoint"/>
                        <mxPoint x="460" y="590" as="targetPoint"/>
                        <Array as="points">
                            <mxPoint x="430" y="620"/>
                        </Array>
                    </mxGeometry>
                </mxCell>
                <mxCell id="HluPISO-prluZnNnP8vA-114" value="" style="endArrow=none;html=1;rounded=0;fontSize=19;fontFamily=Times New Roman;" parent="HluPISO-prluZnNnP8vA-9" edge="1">
                    <mxGeometry width="50" height="50" relative="1" as="geometry">
                        <mxPoint x="400" y="660" as="sourcePoint"/>
                        <mxPoint x="460" y="600" as="targetPoint"/>
                        <Array as="points">
                            <mxPoint x="430" y="630"/>
                        </Array>
                    </mxGeometry>
                </mxCell>
                <mxCell id="HluPISO-prluZnNnP8vA-115" value="" style="endArrow=none;html=1;rounded=0;fontSize=19;fontFamily=Times New Roman;" parent="HluPISO-prluZnNnP8vA-9" edge="1">
                    <mxGeometry width="50" height="50" relative="1" as="geometry">
                        <mxPoint x="410" y="660" as="sourcePoint"/>
                        <mxPoint x="460" y="610" as="targetPoint"/>
                        <Array as="points">
                            <mxPoint x="430" y="640"/>
                        </Array>
                    </mxGeometry>
                </mxCell>
                <mxCell id="HluPISO-prluZnNnP8vA-116" value="" style="endArrow=none;html=1;rounded=0;fontSize=19;fontFamily=Times New Roman;" parent="HluPISO-prluZnNnP8vA-9" edge="1">
                    <mxGeometry width="50" height="50" relative="1" as="geometry">
                        <mxPoint x="420" y="660" as="sourcePoint"/>
                        <mxPoint x="460" y="620" as="targetPoint"/>
                        <Array as="points">
                            <mxPoint x="430" y="650"/>
                        </Array>
                    </mxGeometry>
                </mxCell>
                <mxCell id="HluPISO-prluZnNnP8vA-117" value="" style="endArrow=none;html=1;rounded=0;fontSize=19;fontFamily=Times New Roman;" parent="HluPISO-prluZnNnP8vA-9" edge="1">
                    <mxGeometry width="50" height="50" relative="1" as="geometry">
                        <mxPoint x="370" y="630" as="sourcePoint"/>
                        <mxPoint x="370" y="630" as="targetPoint"/>
                        <Array as="points"/>
                    </mxGeometry>
                </mxCell>
                <mxCell id="HluPISO-prluZnNnP8vA-118" value="" style="endArrow=none;html=1;rounded=0;fontSize=19;fontFamily=Times New Roman;" parent="HluPISO-prluZnNnP8vA-9" edge="1">
                    <mxGeometry width="50" height="50" relative="1" as="geometry">
                        <mxPoint x="370" y="520" as="sourcePoint"/>
                        <mxPoint x="400" y="490" as="targetPoint"/>
                    </mxGeometry>
                </mxCell>
                <mxCell id="HluPISO-prluZnNnP8vA-119" value="" style="endArrow=none;html=1;rounded=0;fontSize=19;fontFamily=Times New Roman;" parent="HluPISO-prluZnNnP8vA-9" edge="1">
                    <mxGeometry width="50" height="50" relative="1" as="geometry">
                        <mxPoint x="370" y="530" as="sourcePoint"/>
                        <mxPoint x="410" y="490" as="targetPoint"/>
                    </mxGeometry>
                </mxCell>
                <mxCell id="HluPISO-prluZnNnP8vA-120" value="" style="endArrow=none;html=1;rounded=0;fontSize=19;fontFamily=Times New Roman;" parent="HluPISO-prluZnNnP8vA-9" edge="1">
                    <mxGeometry width="50" height="50" relative="1" as="geometry">
                        <mxPoint x="370" y="540" as="sourcePoint"/>
                        <mxPoint x="420" y="490" as="targetPoint"/>
                        <Array as="points">
                            <mxPoint x="400" y="510"/>
                        </Array>
                    </mxGeometry>
                </mxCell>
                <mxCell id="HluPISO-prluZnNnP8vA-121" value="" style="endArrow=none;html=1;rounded=0;fontSize=19;fontFamily=Times New Roman;" parent="HluPISO-prluZnNnP8vA-9" edge="1">
                    <mxGeometry width="50" height="50" relative="1" as="geometry">
                        <mxPoint x="370" y="550" as="sourcePoint"/>
                        <mxPoint x="430" y="490" as="targetPoint"/>
                        <Array as="points">
                            <mxPoint x="400" y="520"/>
                        </Array>
                    </mxGeometry>
                </mxCell>
                <mxCell id="HluPISO-prluZnNnP8vA-122" value="" style="endArrow=none;html=1;rounded=0;fontSize=19;fontFamily=Times New Roman;" parent="HluPISO-prluZnNnP8vA-9" edge="1">
                    <mxGeometry width="50" height="50" relative="1" as="geometry">
                        <mxPoint x="380" y="550" as="sourcePoint"/>
                        <mxPoint x="440" y="490" as="targetPoint"/>
                        <Array as="points">
                            <mxPoint x="410" y="520"/>
                        </Array>
                    </mxGeometry>
                </mxCell>
                <mxCell id="HluPISO-prluZnNnP8vA-123" value="" style="endArrow=none;html=1;rounded=0;fontSize=19;fontFamily=Times New Roman;" parent="HluPISO-prluZnNnP8vA-9" edge="1">
                    <mxGeometry width="50" height="50" relative="1" as="geometry">
                        <mxPoint x="380" y="560" as="sourcePoint"/>
                        <mxPoint x="440" y="500" as="targetPoint"/>
                        <Array as="points">
                            <mxPoint x="410" y="530"/>
                        </Array>
                    </mxGeometry>
                </mxCell>
                <mxCell id="HluPISO-prluZnNnP8vA-124" value="" style="endArrow=none;html=1;rounded=0;fontSize=19;fontFamily=Times New Roman;" parent="HluPISO-prluZnNnP8vA-9" edge="1">
                    <mxGeometry width="50" height="50" relative="1" as="geometry">
                        <mxPoint x="380" y="570" as="sourcePoint"/>
                        <mxPoint x="440" y="510" as="targetPoint"/>
                        <Array as="points">
                            <mxPoint x="410" y="540"/>
                        </Array>
                    </mxGeometry>
                </mxCell>
                <mxCell id="HluPISO-prluZnNnP8vA-125" value="" style="endArrow=none;html=1;rounded=0;fontSize=19;fontFamily=Times New Roman;" parent="HluPISO-prluZnNnP8vA-9" edge="1">
                    <mxGeometry width="50" height="50" relative="1" as="geometry">
                        <mxPoint x="390" y="570" as="sourcePoint"/>
                        <mxPoint x="450" y="510" as="targetPoint"/>
                        <Array as="points">
                            <mxPoint x="420" y="540"/>
                        </Array>
                    </mxGeometry>
                </mxCell>
                <mxCell id="HluPISO-prluZnNnP8vA-126" value="" style="endArrow=none;html=1;rounded=0;fontSize=19;fontFamily=Times New Roman;" parent="HluPISO-prluZnNnP8vA-9" edge="1">
                    <mxGeometry width="50" height="50" relative="1" as="geometry">
                        <mxPoint x="390" y="580" as="sourcePoint"/>
                        <mxPoint x="450" y="520" as="targetPoint"/>
                        <Array as="points">
                            <mxPoint x="420" y="550"/>
                        </Array>
                    </mxGeometry>
                </mxCell>
                <mxCell id="HluPISO-prluZnNnP8vA-127" value="" style="endArrow=none;html=1;rounded=0;fontSize=19;fontFamily=Times New Roman;" parent="HluPISO-prluZnNnP8vA-9" edge="1">
                    <mxGeometry width="50" height="50" relative="1" as="geometry">
                        <mxPoint x="400" y="580" as="sourcePoint"/>
                        <mxPoint x="460" y="520" as="targetPoint"/>
                        <Array as="points">
                            <mxPoint x="430" y="550"/>
                        </Array>
                    </mxGeometry>
                </mxCell>
                <mxCell id="HluPISO-prluZnNnP8vA-128" value="" style="endArrow=none;html=1;rounded=0;fontSize=19;fontFamily=Times New Roman;" parent="HluPISO-prluZnNnP8vA-9" edge="1">
                    <mxGeometry width="50" height="50" relative="1" as="geometry">
                        <mxPoint x="400" y="590" as="sourcePoint"/>
                        <mxPoint x="460" y="530" as="targetPoint"/>
                        <Array as="points">
                            <mxPoint x="430" y="560"/>
                        </Array>
                    </mxGeometry>
                </mxCell>
                <mxCell id="HluPISO-prluZnNnP8vA-129" value="" style="endArrow=none;html=1;rounded=0;fontSize=19;fontFamily=Times New Roman;" parent="HluPISO-prluZnNnP8vA-9" edge="1">
                    <mxGeometry width="50" height="50" relative="1" as="geometry">
                        <mxPoint x="400" y="600" as="sourcePoint"/>
                        <mxPoint x="460" y="540" as="targetPoint"/>
                        <Array as="points">
                            <mxPoint x="430" y="570"/>
                        </Array>
                    </mxGeometry>
                </mxCell>
                <mxCell id="HluPISO-prluZnNnP8vA-130" value="" style="endArrow=none;html=1;rounded=0;fontSize=19;fontFamily=Times New Roman;" parent="HluPISO-prluZnNnP8vA-9" edge="1">
                    <mxGeometry width="50" height="50" relative="1" as="geometry">
                        <mxPoint x="410" y="600" as="sourcePoint"/>
                        <mxPoint x="470" y="540" as="targetPoint"/>
                        <Array as="points">
                            <mxPoint x="440" y="570"/>
                        </Array>
                    </mxGeometry>
                </mxCell>
                <mxCell id="HluPISO-prluZnNnP8vA-131" value="" style="endArrow=none;html=1;rounded=0;fontSize=19;fontFamily=Times New Roman;" parent="HluPISO-prluZnNnP8vA-9" edge="1">
                    <mxGeometry width="50" height="50" relative="1" as="geometry">
                        <mxPoint x="410" y="610" as="sourcePoint"/>
                        <mxPoint x="470" y="550" as="targetPoint"/>
                        <Array as="points">
                            <mxPoint x="440" y="580"/>
                        </Array>
                    </mxGeometry>
                </mxCell>
                <mxCell id="HluPISO-prluZnNnP8vA-132" value="" style="endArrow=none;html=1;rounded=0;fontSize=19;fontFamily=Times New Roman;" parent="HluPISO-prluZnNnP8vA-9" edge="1">
                    <mxGeometry width="50" height="50" relative="1" as="geometry">
                        <mxPoint x="430" y="600" as="sourcePoint"/>
                        <mxPoint x="490" y="540" as="targetPoint"/>
                        <Array as="points">
                            <mxPoint x="460" y="570"/>
                        </Array>
                    </mxGeometry>
                </mxCell>
                <mxCell id="HluPISO-prluZnNnP8vA-133" value="" style="endArrow=none;html=1;rounded=0;fontSize=19;fontFamily=Times New Roman;" parent="HluPISO-prluZnNnP8vA-9" edge="1">
                    <mxGeometry width="50" height="50" relative="1" as="geometry">
                        <mxPoint x="420" y="620" as="sourcePoint"/>
                        <mxPoint x="480" y="560" as="targetPoint"/>
                        <Array as="points">
                            <mxPoint x="450" y="590"/>
                        </Array>
                    </mxGeometry>
                </mxCell>
                <mxCell id="HluPISO-prluZnNnP8vA-134" value="" style="endArrow=none;html=1;rounded=0;fontSize=19;fontFamily=Times New Roman;" parent="HluPISO-prluZnNnP8vA-9" edge="1">
                    <mxGeometry width="50" height="50" relative="1" as="geometry">
                        <mxPoint x="430" y="620" as="sourcePoint"/>
                        <mxPoint x="490" y="560" as="targetPoint"/>
                        <Array as="points">
                            <mxPoint x="460" y="590"/>
                        </Array>
                    </mxGeometry>
                </mxCell>
                <mxCell id="HluPISO-prluZnNnP8vA-135" value="" style="endArrow=none;html=1;rounded=0;fontSize=19;fontFamily=Times New Roman;" parent="HluPISO-prluZnNnP8vA-9" edge="1">
                    <mxGeometry width="50" height="50" relative="1" as="geometry">
                        <mxPoint x="430" y="630" as="sourcePoint"/>
                        <mxPoint x="490" y="570" as="targetPoint"/>
                        <Array as="points">
                            <mxPoint x="460" y="600"/>
                        </Array>
                    </mxGeometry>
                </mxCell>
                <mxCell id="HluPISO-prluZnNnP8vA-136" value="" style="endArrow=none;html=1;rounded=0;fontSize=19;fontFamily=Times New Roman;" parent="HluPISO-prluZnNnP8vA-9" edge="1">
                    <mxGeometry width="50" height="50" relative="1" as="geometry">
                        <mxPoint x="440" y="630" as="sourcePoint"/>
                        <mxPoint x="490" y="580" as="targetPoint"/>
                        <Array as="points">
                            <mxPoint x="460" y="610"/>
                        </Array>
                    </mxGeometry>
                </mxCell>
                <mxCell id="HluPISO-prluZnNnP8vA-137" value="" style="endArrow=none;html=1;rounded=0;fontSize=19;fontFamily=Times New Roman;" parent="HluPISO-prluZnNnP8vA-9" edge="1">
                    <mxGeometry width="50" height="50" relative="1" as="geometry">
                        <mxPoint x="450" y="630" as="sourcePoint"/>
                        <mxPoint x="490" y="590" as="targetPoint"/>
                        <Array as="points">
                            <mxPoint x="460" y="620"/>
                        </Array>
                    </mxGeometry>
                </mxCell>
                <mxCell id="HluPISO-prluZnNnP8vA-138" value="" style="endArrow=none;html=1;rounded=0;fontSize=19;fontFamily=Times New Roman;" parent="HluPISO-prluZnNnP8vA-9" edge="1">
                    <mxGeometry width="50" height="50" relative="1" as="geometry">
                        <mxPoint x="400" y="600" as="sourcePoint"/>
                        <mxPoint x="400" y="600" as="targetPoint"/>
                        <Array as="points"/>
                    </mxGeometry>
                </mxCell>
                <mxCell id="HluPISO-prluZnNnP8vA-160" value="" style="endArrow=none;html=1;rounded=0;fontSize=19;fontFamily=Times New Roman;" parent="HluPISO-prluZnNnP8vA-9" edge="1">
                    <mxGeometry width="50" height="50" relative="1" as="geometry">
                        <mxPoint x="370" y="590" as="sourcePoint"/>
                        <mxPoint x="410" y="550" as="targetPoint"/>
                    </mxGeometry>
                </mxCell>
                <mxCell id="HluPISO-prluZnNnP8vA-161" value="" style="endArrow=none;html=1;rounded=0;fontSize=19;fontFamily=Times New Roman;" parent="HluPISO-prluZnNnP8vA-9" edge="1">
                    <mxGeometry width="50" height="50" relative="1" as="geometry">
                        <mxPoint x="370" y="600" as="sourcePoint"/>
                        <mxPoint x="420" y="550" as="targetPoint"/>
                    </mxGeometry>
                </mxCell>
                <mxCell id="HluPISO-prluZnNnP8vA-162" value="" style="endArrow=none;html=1;rounded=0;fontSize=19;fontFamily=Times New Roman;" parent="HluPISO-prluZnNnP8vA-9" edge="1">
                    <mxGeometry width="50" height="50" relative="1" as="geometry">
                        <mxPoint x="370" y="610" as="sourcePoint"/>
                        <mxPoint x="430" y="550" as="targetPoint"/>
                        <Array as="points">
                            <mxPoint x="400" y="580"/>
                        </Array>
                    </mxGeometry>
                </mxCell>
                <mxCell id="HluPISO-prluZnNnP8vA-163" value="" style="endArrow=none;html=1;rounded=0;fontSize=19;fontFamily=Times New Roman;" parent="HluPISO-prluZnNnP8vA-9" edge="1">
                    <mxGeometry width="50" height="50" relative="1" as="geometry">
                        <mxPoint x="370" y="620" as="sourcePoint"/>
                        <mxPoint x="430" y="560" as="targetPoint"/>
                        <Array as="points">
                            <mxPoint x="400" y="590"/>
                        </Array>
                    </mxGeometry>
                </mxCell>
                <mxCell id="HluPISO-prluZnNnP8vA-164" value="" style="endArrow=none;html=1;rounded=0;fontSize=19;fontFamily=Times New Roman;" parent="HluPISO-prluZnNnP8vA-9" edge="1">
                    <mxGeometry width="50" height="50" relative="1" as="geometry">
                        <mxPoint x="380" y="620" as="sourcePoint"/>
                        <mxPoint x="440" y="560" as="targetPoint"/>
                        <Array as="points">
                            <mxPoint x="410" y="590"/>
                        </Array>
                    </mxGeometry>
                </mxCell>
                <mxCell id="HluPISO-prluZnNnP8vA-165" value="" style="endArrow=none;html=1;rounded=0;fontSize=19;fontFamily=Times New Roman;" parent="HluPISO-prluZnNnP8vA-9" edge="1">
                    <mxGeometry width="50" height="50" relative="1" as="geometry">
                        <mxPoint x="380" y="630" as="sourcePoint"/>
                        <mxPoint x="440" y="570" as="targetPoint"/>
                        <Array as="points">
                            <mxPoint x="410" y="600"/>
                        </Array>
                    </mxGeometry>
                </mxCell>
                <mxCell id="HluPISO-prluZnNnP8vA-166" value="" style="endArrow=none;html=1;rounded=0;fontSize=19;fontFamily=Times New Roman;" parent="HluPISO-prluZnNnP8vA-9" edge="1">
                    <mxGeometry width="50" height="50" relative="1" as="geometry">
                        <mxPoint x="380" y="640" as="sourcePoint"/>
                        <mxPoint x="440" y="580" as="targetPoint"/>
                        <Array as="points">
                            <mxPoint x="410" y="610"/>
                        </Array>
                    </mxGeometry>
                </mxCell>
                <mxCell id="HluPISO-prluZnNnP8vA-167" value="" style="endArrow=none;html=1;rounded=0;fontSize=19;fontFamily=Times New Roman;" parent="HluPISO-prluZnNnP8vA-9" edge="1">
                    <mxGeometry width="50" height="50" relative="1" as="geometry">
                        <mxPoint x="390" y="640" as="sourcePoint"/>
                        <mxPoint x="450" y="580" as="targetPoint"/>
                        <Array as="points">
                            <mxPoint x="420" y="610"/>
                        </Array>
                    </mxGeometry>
                </mxCell>
                <mxCell id="HluPISO-prluZnNnP8vA-168" value="" style="endArrow=none;html=1;rounded=0;fontSize=19;fontFamily=Times New Roman;" parent="HluPISO-prluZnNnP8vA-9" edge="1">
                    <mxGeometry width="50" height="50" relative="1" as="geometry">
                        <mxPoint x="390" y="650" as="sourcePoint"/>
                        <mxPoint x="450" y="590" as="targetPoint"/>
                        <Array as="points">
                            <mxPoint x="420" y="620"/>
                        </Array>
                    </mxGeometry>
                </mxCell>
                <mxCell id="HluPISO-prluZnNnP8vA-169" value="" style="endArrow=none;html=1;rounded=0;fontSize=19;fontFamily=Times New Roman;" parent="HluPISO-prluZnNnP8vA-9" edge="1">
                    <mxGeometry width="50" height="50" relative="1" as="geometry">
                        <mxPoint x="400" y="650" as="sourcePoint"/>
                        <mxPoint x="460" y="590" as="targetPoint"/>
                        <Array as="points">
                            <mxPoint x="430" y="620"/>
                        </Array>
                    </mxGeometry>
                </mxCell>
                <mxCell id="HluPISO-prluZnNnP8vA-170" value="" style="endArrow=none;html=1;rounded=0;fontSize=19;fontFamily=Times New Roman;" parent="HluPISO-prluZnNnP8vA-9" edge="1">
                    <mxGeometry width="50" height="50" relative="1" as="geometry">
                        <mxPoint x="400" y="660" as="sourcePoint"/>
                        <mxPoint x="460" y="600" as="targetPoint"/>
                        <Array as="points">
                            <mxPoint x="430" y="630"/>
                        </Array>
                    </mxGeometry>
                </mxCell>
                <mxCell id="HluPISO-prluZnNnP8vA-171" value="" style="endArrow=none;html=1;rounded=0;fontSize=19;fontFamily=Times New Roman;" parent="HluPISO-prluZnNnP8vA-9" edge="1">
                    <mxGeometry width="50" height="50" relative="1" as="geometry">
                        <mxPoint x="400" y="670" as="sourcePoint"/>
                        <mxPoint x="460" y="610" as="targetPoint"/>
                        <Array as="points">
                            <mxPoint x="430" y="640"/>
                        </Array>
                    </mxGeometry>
                </mxCell>
                <mxCell id="HluPISO-prluZnNnP8vA-172" value="" style="endArrow=none;html=1;rounded=0;fontSize=19;fontFamily=Times New Roman;" parent="HluPISO-prluZnNnP8vA-9" edge="1">
                    <mxGeometry width="50" height="50" relative="1" as="geometry">
                        <mxPoint x="410" y="670" as="sourcePoint"/>
                        <mxPoint x="470" y="610" as="targetPoint"/>
                        <Array as="points">
                            <mxPoint x="440" y="640"/>
                        </Array>
                    </mxGeometry>
                </mxCell>
                <mxCell id="HluPISO-prluZnNnP8vA-173" value="" style="endArrow=none;html=1;rounded=0;fontSize=19;fontFamily=Times New Roman;" parent="HluPISO-prluZnNnP8vA-9" edge="1">
                    <mxGeometry width="50" height="50" relative="1" as="geometry">
                        <mxPoint x="410" y="680" as="sourcePoint"/>
                        <mxPoint x="490" y="600" as="targetPoint"/>
                        <Array as="points">
                            <mxPoint x="440" y="650"/>
                        </Array>
                    </mxGeometry>
                </mxCell>
                <mxCell id="HluPISO-prluZnNnP8vA-174" value="" style="endArrow=none;html=1;rounded=0;fontSize=19;fontFamily=Times New Roman;" parent="HluPISO-prluZnNnP8vA-9" edge="1">
                    <mxGeometry width="50" height="50" relative="1" as="geometry">
                        <mxPoint x="410" y="690" as="sourcePoint"/>
                        <mxPoint x="490" y="610" as="targetPoint"/>
                        <Array as="points">
                            <mxPoint x="460" y="640"/>
                        </Array>
                    </mxGeometry>
                </mxCell>
                <mxCell id="HluPISO-prluZnNnP8vA-175" value="" style="endArrow=none;html=1;rounded=0;fontSize=19;fontFamily=Times New Roman;" parent="HluPISO-prluZnNnP8vA-9" edge="1">
                    <mxGeometry width="50" height="50" relative="1" as="geometry">
                        <mxPoint x="420" y="690" as="sourcePoint"/>
                        <mxPoint x="480" y="630" as="targetPoint"/>
                        <Array as="points">
                            <mxPoint x="450" y="660"/>
                        </Array>
                    </mxGeometry>
                </mxCell>
                <mxCell id="HluPISO-prluZnNnP8vA-176" value="" style="endArrow=none;html=1;rounded=0;fontSize=19;fontFamily=Times New Roman;" parent="HluPISO-prluZnNnP8vA-9" edge="1">
                    <mxGeometry width="50" height="50" relative="1" as="geometry">
                        <mxPoint x="430" y="690" as="sourcePoint"/>
                        <mxPoint x="490" y="630" as="targetPoint"/>
                        <Array as="points">
                            <mxPoint x="460" y="660"/>
                        </Array>
                    </mxGeometry>
                </mxCell>
                <mxCell id="HluPISO-prluZnNnP8vA-177" value="" style="endArrow=none;html=1;rounded=0;fontSize=19;fontFamily=Times New Roman;" parent="HluPISO-prluZnNnP8vA-9" edge="1">
                    <mxGeometry width="50" height="50" relative="1" as="geometry">
                        <mxPoint x="430" y="700" as="sourcePoint"/>
                        <mxPoint x="490" y="640" as="targetPoint"/>
                        <Array as="points">
                            <mxPoint x="460" y="670"/>
                        </Array>
                    </mxGeometry>
                </mxCell>
                <mxCell id="HluPISO-prluZnNnP8vA-178" value="" style="endArrow=none;html=1;rounded=0;fontSize=19;fontFamily=Times New Roman;" parent="HluPISO-prluZnNnP8vA-9" edge="1">
                    <mxGeometry width="50" height="50" relative="1" as="geometry">
                        <mxPoint x="440" y="700" as="sourcePoint"/>
                        <mxPoint x="490" y="650" as="targetPoint"/>
                        <Array as="points">
                            <mxPoint x="460" y="680"/>
                        </Array>
                    </mxGeometry>
                </mxCell>
                <mxCell id="HluPISO-prluZnNnP8vA-179" value="" style="endArrow=none;html=1;rounded=0;fontSize=19;fontFamily=Times New Roman;" parent="HluPISO-prluZnNnP8vA-9" edge="1">
                    <mxGeometry width="50" height="50" relative="1" as="geometry">
                        <mxPoint x="450" y="700" as="sourcePoint"/>
                        <mxPoint x="490" y="660" as="targetPoint"/>
                        <Array as="points">
                            <mxPoint x="460" y="690"/>
                        </Array>
                    </mxGeometry>
                </mxCell>
                <mxCell id="HluPISO-prluZnNnP8vA-180" value="" style="endArrow=none;html=1;rounded=0;fontSize=19;fontFamily=Times New Roman;" parent="HluPISO-prluZnNnP8vA-9" edge="1">
                    <mxGeometry width="50" height="50" relative="1" as="geometry">
                        <mxPoint x="400" y="670" as="sourcePoint"/>
                        <mxPoint x="400" y="670" as="targetPoint"/>
                        <Array as="points"/>
                    </mxGeometry>
                </mxCell>
                <mxCell id="HluPISO-prluZnNnP8vA-183" value="" style="verticalLabelPosition=bottom;verticalAlign=top;html=1;shape=mxgraph.basic.donut;dx=39.67;strokeColor=none;fontSize=19;fontFamily=Times New Roman;" parent="HluPISO-prluZnNnP8vA-9" vertex="1">
                    <mxGeometry x="280" y="480" width="240" height="240" as="geometry"/>
                </mxCell>
                <mxCell id="HluPISO-prluZnNnP8vA-190" value="" style="verticalLabelPosition=bottom;verticalAlign=top;html=1;shape=mxgraph.basic.partConcEllipse;startAngle=0.16618466658432132;endAngle=0.25;arcWidth=0.5;fontSize=19;fontFamily=Times New Roman;" parent="HluPISO-prluZnNnP8vA-9" vertex="1">
                    <mxGeometry x="320" y="520" width="160" height="160" as="geometry"/>
                </mxCell>
                <mxCell id="1" style="" parent="0"/>
                <mxCell id="F5VEuz6RJH4SYdOjmclk-13" value="" style="ellipse;whiteSpace=wrap;html=1;aspect=fixed;fillColor=none;fillStyle=hatch;gradientColor=none;strokeColor=default;shadow=0;fontFamily=Times New Roman;" parent="1" vertex="1">
                    <mxGeometry x="320" y="280" width="160" height="160" as="geometry"/>
                </mxCell>
                <mxCell id="F5VEuz6RJH4SYdOjmclk-14" value="" style="endArrow=none;html=1;rounded=0;entryX=0.5;entryY=0.25;entryDx=0;entryDy=0;entryPerimeter=0;fontFamily=Times New Roman;" parent="1" target="F5VEuz6RJH4SYdOjmclk-13" edge="1">
                    <mxGeometry width="50" height="50" relative="1" as="geometry">
                        <mxPoint x="399.89" y="280" as="sourcePoint"/>
                        <mxPoint x="399.89" y="310.00000000000006" as="targetPoint"/>
                    </mxGeometry>
                </mxCell>
                <mxCell id="F5VEuz6RJH4SYdOjmclk-17" value="" style="endArrow=none;html=1;rounded=0;entryX=0.065;entryY=0.25;entryDx=0;entryDy=0;entryPerimeter=0;fontFamily=Times New Roman;" parent="1" target="F5VEuz6RJH4SYdOjmclk-13" edge="1">
                    <mxGeometry width="50" height="50" relative="1" as="geometry">
                        <mxPoint x="400" y="360" as="sourcePoint"/>
                        <mxPoint x="430" y="340" as="targetPoint"/>
                    </mxGeometry>
                </mxCell>
                <mxCell id="F5VEuz6RJH4SYdOjmclk-21" value="" style="endArrow=none;html=1;rounded=0;fontFamily=Times New Roman;" parent="1" edge="1">
                    <mxGeometry width="50" height="50" relative="1" as="geometry">
                        <mxPoint x="400" y="360" as="sourcePoint"/>
                        <mxPoint x="440" y="290" as="targetPoint"/>
                    </mxGeometry>
                </mxCell>
                <mxCell id="M3e4Apx0yC4hlDwfOrhS-1" value="" style="endArrow=none;html=1;rounded=0;endSize=6;entryX=0.248;entryY=0.067;entryDx=0;entryDy=0;entryPerimeter=0;fontFamily=Times New Roman;" parent="1" target="F5VEuz6RJH4SYdOjmclk-13" edge="1">
                    <mxGeometry width="50" height="50" relative="1" as="geometry">
                        <mxPoint x="400" y="360" as="sourcePoint"/>
                        <mxPoint x="360" y="290" as="targetPoint"/>
                    </mxGeometry>
                </mxCell>
                <mxCell id="M3e4Apx0yC4hlDwfOrhS-2" value="" style="endArrow=none;html=1;rounded=0;entryX=0.644;entryY=1.001;entryDx=0;entryDy=0;entryPerimeter=0;fontFamily=Times New Roman;" parent="1" edge="1">
                    <mxGeometry width="50" height="50" relative="1" as="geometry">
                        <mxPoint x="400" y="360" as="sourcePoint"/>
                        <mxPoint x="469.31999999999994" y="320.03" as="targetPoint"/>
                    </mxGeometry>
                </mxCell>
                <mxCell id="M3e4Apx0yC4hlDwfOrhS-5" value="&lt;font style=&quot;font-size: 19px;&quot;&gt;maxSize\(-1\)&lt;/font&gt;" style="text;html=1;strokeColor=none;fillColor=none;align=center;verticalAlign=middle;whiteSpace=wrap;rounded=0;fontSize=19;fontFamily=Times New Roman;" parent="1" vertex="1">
                    <mxGeometry x="250" y="270" width="100" height="30" as="geometry"/>
                </mxCell>
                <mxCell id="M3e4Apx0yC4hlDwfOrhS-6" value="&lt;font style=&quot;font-size: 19px;&quot;&gt;0&lt;/font&gt;" style="text;html=1;strokeColor=none;fillColor=none;align=center;verticalAlign=middle;whiteSpace=wrap;rounded=0;fontSize=19;fontFamily=Times New Roman;" parent="1" vertex="1">
                    <mxGeometry x="350" y="260" width="60" height="30" as="geometry"/>
                </mxCell>
                <mxCell id="HluPISO-prluZnNnP8vA-2" value="" style="endArrow=classic;html=1;rounded=0;fontFamily=Times New Roman;" parent="1" edge="1">
                    <mxGeometry width="50" height="50" relative="1" as="geometry">
                        <mxPoint x="422.95" y="270" as="sourcePoint"/>
                        <mxPoint x="413.99939246336606" y="302.8188943009916" as="targetPoint"/>
                    </mxGeometry>
                </mxCell>
                <mxCell id="HluPISO-prluZnNnP8vA-3" value="&lt;font style=&quot;font-size: 19px;&quot;&gt;front&lt;/font&gt;" style="text;html=1;strokeColor=none;fillColor=none;align=center;verticalAlign=middle;whiteSpace=wrap;rounded=0;fontSize=19;fontFamily=Times New Roman;" parent="1" vertex="1">
                    <mxGeometry x="390" y="250" width="70" height="30" as="geometry"/>
                </mxCell>
                <mxCell id="HluPISO-prluZnNnP8vA-5" value="" style="endArrow=classic;html=1;rounded=0;startSize=6;fontFamily=Times New Roman;" parent="1" edge="1">
                    <mxGeometry width="50" height="50" relative="1" as="geometry">
                        <mxPoint x="470" y="290" as="sourcePoint"/>
                        <mxPoint x="440" y="320" as="targetPoint"/>
                    </mxGeometry>
                </mxCell>
                <mxCell id="HluPISO-prluZnNnP8vA-7" value="&lt;font style=&quot;font-size: 19px;&quot;&gt;rear&lt;/font&gt;" style="text;html=1;align=center;verticalAlign=middle;resizable=0;points=[];autosize=1;strokeColor=none;fillColor=none;fontSize=19;fontFamily=Times New Roman;" parent="1" vertex="1">
                    <mxGeometry x="450" y="260" width="50" height="40" as="geometry"/>
                </mxCell>
                <mxCell id="HluPISO-prluZnNnP8vA-8" value="" style="ellipse;whiteSpace=wrap;html=1;aspect=fixed;fontFamily=Times New Roman;" parent="1" vertex="1">
                    <mxGeometry x="360" y="320" width="80" height="80" as="geometry"/>
                </mxCell>
                <mxCell id="HluPISO-prluZnNnP8vA-35" value="(a)&amp;nbsp;&lt;font face=&quot;SimSun&quot; style=&quot;font-size: 19px;&quot;&gt;队列空&lt;/font&gt;" style="text;html=1;strokeColor=none;fillColor=none;align=center;verticalAlign=middle;whiteSpace=wrap;rounded=0;fontSize=19;fontFamily=Times New Roman;" parent="1" vertex="1">
                    <mxGeometry x="350" y="440" width="100" height="30" as="geometry"/>
                </mxCell>
                <mxCell id="HluPISO-prluZnNnP8vA-72" value="(b)&amp;nbsp;&lt;font face=&quot;SimSun&quot; style=&quot;font-size: 19px;&quot;&gt;队列满&lt;/font&gt;" style="text;html=1;strokeColor=none;fillColor=none;align=center;verticalAlign=middle;whiteSpace=wrap;rounded=0;fontSize=19;fontFamily=Times New Roman;" parent="1" vertex="1">
                    <mxGeometry x="350" y="680" width="100" height="30" as="geometry"/>
                </mxCell>
                <mxCell id="HluPISO-prluZnNnP8vA-73" value="" style="endArrow=none;html=1;rounded=0;entryX=1;entryY=0.5;entryDx=0;entryDy=0;fontFamily=Times New Roman;" parent="1" target="HluPISO-prluZnNnP8vA-194" edge="1">
                    <mxGeometry width="50" height="50" relative="1" as="geometry">
                        <mxPoint x="400" y="600" as="sourcePoint"/>
                        <mxPoint x="440" y="530" as="targetPoint"/>
                    </mxGeometry>
                </mxCell>
                <mxCell id="HluPISO-prluZnNnP8vA-74" value="" style="endArrow=none;html=1;rounded=0;entryX=0.644;entryY=1.001;entryDx=0;entryDy=0;entryPerimeter=0;fontFamily=Times New Roman;" parent="1" edge="1">
                    <mxGeometry width="50" height="50" relative="1" as="geometry">
                        <mxPoint x="400" y="600" as="sourcePoint"/>
                        <mxPoint x="469.31999999999994" y="560.03" as="targetPoint"/>
                    </mxGeometry>
                </mxCell>
                <mxCell id="HluPISO-prluZnNnP8vA-197" value="" style="ellipse;whiteSpace=wrap;html=1;aspect=fixed;fontFamily=Times New Roman;" parent="1" vertex="1">
                    <mxGeometry x="360" y="560" width="80" height="80" as="geometry"/>
                </mxCell>
            </root>
        </mxGraphModel>
    </diagram>
</mxfile>